<?xml version="1.0" encoding="iso-8859-1"?>
<!-- Generator: Adobe Illustrator 18.1.1, SVG Export Plug-In . SVG Version: 6.00 Build 0)  -->
<svg version="1.1" id="Layer_1" xmlns="http://www.w3.org/2000/svg" xmlns:xlink="http://www.w3.org/1999/xlink" x="0px" y="0px"
	 viewBox="0 0 612 792" style="enable-background:new 0 0 612 792;" xml:space="preserve">
<path style="fill:#FFFFFF;" d="M200.542-42.924c3.825,0,6.936-3.035,6.936-6.765c0-3.732-3.111-6.766-6.936-6.766
	c-3.825,0-6.938,3.035-6.938,6.766C193.604-45.958,196.717-42.924,200.542-42.924 M200.542-40.924c-4.936,0-8.938-3.925-8.938-8.765
	c0-4.841,4.002-8.766,8.938-8.766c4.935,0,8.936,3.925,8.936,8.766C209.479-44.849,205.477-40.924,200.542-40.924L200.542-40.924
	L200.542-40.924z"/>
<polygon style="fill:#FFFFFF;" points="201.348,-45.698 199.724,-45.698 199.724,-53.671 201.348,-53.671 201.348,-45.698 
	201.348,-45.698 "/>
<polygon style="fill:#FFFFFF;" points="204.595,-48.887 196.475,-48.887 196.475,-50.482 204.595,-50.482 204.595,-48.887 
	204.595,-48.887 "/>
<polygon style="fill:#FFFFFF;" points="212.458,-36.453 206.143,-42.655 207.29,-43.782 213.606,-37.581 212.458,-36.453 
	212.458,-36.453 "/>
</svg>
