<?xml version="1.0" encoding="utf-8"?>
<!-- Generator: Adobe Illustrator 18.1.1, SVG Export Plug-In . SVG Version: 6.00 Build 0)  -->
<svg version="1.1" id="Layer_1" xmlns="http://www.w3.org/2000/svg" xmlns:xlink="http://www.w3.org/1999/xlink" x="0px" y="0px"
	 viewBox="128.3 58.9 22 22" enable-background="new 128.3 58.9 22 22" xml:space="preserve">
<path fill="#FFFFFF" d="M137.2,74.5c3.8,0,6.9-3,6.9-6.8c0-3.7-3.1-6.8-6.9-6.8s-6.9,3-6.9,6.8C130.3,71.5,133.4,74.5,137.2,74.5
	 M137.2,76.5c-4.9,0-8.9-3.9-8.9-8.8c0-4.8,4-8.8,8.9-8.8s8.9,3.9,8.9,8.8C146.2,72.6,142.2,76.5,137.2,76.5L137.2,76.5L137.2,76.5z
	"/>
<polygon fill="#FFFFFF" points="141.3,68.5 133.2,68.5 133.2,66.9 141.3,66.9 "/>
<polygon fill="#FFFFFF" points="149.2,80.9 142.8,74.7 144,73.6 150.3,79.8 "/>
</svg>
