<?xml version="1.0" encoding="utf-8"?>
<!-- Generator: Adobe Illustrator 18.1.1, SVG Export Plug-In . SVG Version: 6.00 Build 0)  -->
<svg version="1.1" id="Layer_1" xmlns="http://www.w3.org/2000/svg" xmlns:xlink="http://www.w3.org/1999/xlink" x="0px" y="0px"
	 viewBox="174.5 68.7 22 22" enable-background="new 174.5 68.7 22 22" xml:space="preserve">
<path fill="#FFFFFF" d="M183.4,84.2c3.8,0,6.9-3,6.9-6.8c0-3.7-3.1-6.8-6.9-6.8s-6.9,3-6.9,6.8C176.5,81.2,179.6,84.2,183.4,84.2
	 M183.4,86.2c-4.9,0-8.9-3.9-8.9-8.8c0-4.8,4-8.8,8.9-8.8c4.9,0,8.9,3.9,8.9,8.8C192.3,82.3,188.3,86.2,183.4,86.2L183.4,86.2
	L183.4,86.2z"/>
<polygon fill="#FFFFFF" points="184.2,81.4 182.6,81.4 182.6,73.5 184.2,73.5 184.2,81.4 "/>
<polygon fill="#FFFFFF" points="187.5,78.3 179.3,78.3 179.3,76.7 187.5,76.7 187.5,78.3 "/>
<polygon fill="#FFFFFF" points="195.3,90.7 189,84.5 190.2,83.4 196.5,89.6 195.3,90.7 "/>
</svg>
